<?xml version="1.0" encoding="UTF-8"?>
<svg id="Capa_2" data-name="Capa 2" xmlns="http://www.w3.org/2000/svg" viewBox="0 0 250 100">
  <defs>
    <style>
      .cls-1 {
        fill: none;
      }

      .cls-1, .cls-2 {
        stroke-width: 0px;
      }

      .cls-2 {
        fill: #fff;
      }
    </style>
  </defs>
  <g id="Capa_1-2" data-name="Capa 1">
    <g>
      <g>
        <path class="cls-2" d="M136.97,49.45c-.65-3.11-3.4-5.45-6.71-5.45h-22.17c-.42,0-.79-.16-1.11-.48-.32-.32-.48-.69-.48-1.11v-5.4c0-.42.16-.79.48-1.11.32-.32.69-.48,1.11-.48h22.04c.77,0,1.52-.13,2.21-.37,1.01-.33,1.91-.9,2.65-1.64.29-.29.57-.62.79-.97.77-1.1,1.22-2.44,1.22-3.88h-29.11c-1.48,0-2.85.38-4.09,1.14-1.26.77-2.26,1.77-3.02,3.02-.77,1.26-1.15,2.62-1.15,4.1v5.77c0,1.48.38,2.85,1.15,4.1.75,1.24,1.76,2.25,3.02,3.02.07.04,25.76-.19,25.76-.19,1.32,0,.7,7.44.7,7.44,0,.42-.16.79-.48,1.11-.32.32-.69.48-1.11.48h-22.05c-1.89,0-3.61.77-4.84,2.01-.29.29-.57.62-.79.97-.77,1.1-1.22,2.44-1.22,3.88h29.09c1.48,0,2.86-.38,4.1-1.14,1.18-.73,2.14-1.67,2.89-2.82.05-.07.09-.13.13-.2.77-1.26,1.14-2.62,1.14-4.1v-6.3s-.24-.91-.15-1.4Z"/>
        <g>
          <path class="cls-2" d="M147.52,64.27c-1.25-.76-2.25-1.77-3.02-3.02-.76-1.25-1.14-2.61-1.14-4.1v-20.33c0-1.48.38-2.85,1.14-4.1.76-1.25,1.77-2.26,3.02-3.02,1.25-.76,2.61-1.14,4.1-1.14h29.1c0,3.79-3.07,6.86-6.86,6.86h-22.05c-.42,0-.79.16-1.11.48-.32.32-.48.69-.48,1.11v19.95c0,.42.16.79.48,1.11.32.32.69.48,1.11.48h22.17c3.79,0,6.86,3.07,6.86,6.86h0s-29.22,0-29.22,0c-1.48,0-2.85-.38-4.1-1.14Z"/>
          <path class="cls-2" d="M195.58,65.42c-1.53,0-2.91-.38-4.16-1.14-1.25-.76-2.25-1.77-2.99-3.02-.74-1.25-1.11-2.61-1.11-4.1v-6.73c0-3.79,3.07-6.86,6.86-6.86h23.7v-6.54c0-.42-.15-.79-.44-1.11-.3-.32-.66-.48-1.08-.48h-22.17c-3.79,0-6.86-3.07-6.86-6.86h0s29.22,0,29.22,0c1.53,0,2.91.38,4.16,1.14,1.25.76,2.24,1.77,2.99,3.02.74,1.25,1.11,2.62,1.11,4.1v21.73c0,3.79-3.07,6.86-6.86,6.86h-22.36ZM195.77,58.55h22.11v-8.58h-23.7v6.99c0,.42.16.79.48,1.11.32.32.69.48,1.11.48Z"/>
          <path class="cls-2" d="M231.41,58.55v-29.99h0c3.79,0,6.86,3.07,6.86,6.86v29.99h0c-3.79,0-6.86-3.07-6.86-6.86Z"/>
          <path class="cls-2" d="M234.16,24.7c-2.62,0-4.75-2.13-4.75-4.75s2.13-4.76,4.75-4.76,4.75,2.13,4.75,4.75-2.13,4.76-4.75,4.76ZM234.16,17.84c-1.16,0-2.11.94-2.11,2.11h0c0,1.16.94,2.11,2.11,2.11s2.11-.94,2.11-2.11-.94-2.11-2.11-2.11Z"/>
        </g>
        <g>
          <polygon class="cls-2" points="101.63 79.8 109.97 79.8 109.97 78.09 101.63 78.09 101.63 75.38 110.53 75.38 110.53 73.67 99.6 73.67 99.6 84.63 110.88 84.63 110.88 82.92 101.63 82.92 101.63 79.8"/>
          <polygon class="cls-2" points="123.04 82.02 115.11 73.67 112.97 73.67 112.97 84.63 115 84.63 115 76.25 122.99 84.63 125.06 84.63 125.06 73.67 123.04 73.67 123.04 82.02"/>
          <path class="cls-2" d="M135.13,80.5h3.93v1.08c-.52.45-1.15.81-1.88,1.07-.81.3-1.79.45-2.9.45-.79,0-1.52-.09-2.18-.28-.63-.18-1.18-.44-1.63-.79-.44-.34-.78-.75-1.03-1.24-.24-.48-.36-1.05-.36-1.68s.12-1.2.36-1.68c.24-.48.59-.89,1.02-1.21s.99-.59,1.63-.76c1.17-.32,2.73-.35,3.92-.1.52.11.99.25,1.38.43.37.17.67.37.9.58.2.19.32.38.37.59l.09.38h2.17l-.19-.63c-.15-.51-.43-.97-.84-1.38-.39-.39-.88-.73-1.45-1.01-.56-.27-1.21-.48-1.92-.62-1.61-.33-3.61-.28-5.15.16-.88.25-1.65.63-2.29,1.11-.65.49-1.16,1.09-1.53,1.78-.36.7-.55,1.49-.55,2.36s.18,1.65.54,2.36c.36.71.87,1.32,1.53,1.81.65.49,1.42.87,2.31,1.13.88.26,1.86.39,2.92.39.52,0,1.04-.03,1.54-.09.5-.06,1-.15,1.47-.27.47-.12.93-.29,1.36-.5.22-.11.43-.22.63-.36l.35,1.03h1.44v-5.84h-5.95v1.71Z"/>
          <rect class="cls-2" x="143.89" y="73.67" width="2.02" height="10.96"/>
          <polygon class="cls-2" points="159.02 82.02 151.09 73.67 148.96 73.67 148.96 84.63 150.98 84.63 150.98 76.25 158.98 84.63 161.04 84.63 161.04 73.67 159.02 73.67 159.02 82.02"/>
          <polygon class="cls-2" points="165.72 79.8 174.06 79.8 174.06 78.09 165.72 78.09 165.72 75.38 174.62 75.38 174.62 73.67 163.69 73.67 163.69 84.63 174.97 84.63 174.97 82.92 165.72 82.92 165.72 79.8"/>
          <polygon class="cls-2" points="179.22 79.8 187.56 79.8 187.56 78.09 179.22 78.09 179.22 75.38 188.12 75.38 188.12 73.67 177.19 73.67 177.19 84.63 188.47 84.63 188.47 82.92 179.22 82.92 179.22 79.8"/>
          <path class="cls-2" d="M200.83,79.98c-.09-.11-.19-.22-.3-.32.11-.04.21-.08.3-.12.42-.18.78-.41,1.05-.68.29-.27.51-.59.65-.95.14-.35.21-.72.21-1.12,0-.64-.16-1.19-.49-1.61-.31-.41-.73-.73-1.24-.96-.48-.21-1.03-.36-1.63-.44-.58-.08-1.19-.12-1.8-.12h-6.91v10.96h2.02v-4.5h4.5c.34,0,.63.04.87.12.24.08.46.19.64.32.19.14.35.31.49.49.15.21.3.42.42.66l1.56,2.91h2.26l-2.21-4.07c-.12-.21-.25-.4-.39-.58ZM192.69,75.38h4.76c1.15,0,2.02.13,2.57.39.45.21.65.53.65,1.03,0,.3-.06.55-.17.74-.11.19-.28.34-.52.46-.28.14-.64.25-1.09.31-.48.07-1.07.1-1.74.1h-4.46v-3.04Z"/>
          <rect class="cls-2" x="205.73" y="73.67" width="2.02" height="10.96"/>
          <polygon class="cls-2" points="220.86 82.02 212.93 73.67 210.8 73.67 210.8 84.63 212.82 84.63 212.82 76.25 220.81 84.63 222.88 84.63 222.88 73.67 220.86 73.67 220.86 82.02"/>
          <path class="cls-2" d="M232.95,78.79v1.71h3.93v1.08c-.52.45-1.15.81-1.88,1.07-.81.3-1.79.45-2.9.45-.79,0-1.52-.09-2.18-.28-.64-.18-1.18-.44-1.63-.79-.45-.34-.78-.75-1.03-1.24-.24-.48-.36-1.05-.36-1.68s.12-1.2.36-1.68c.24-.48.58-.89,1.02-1.21.45-.34.99-.59,1.62-.76,1.18-.32,2.74-.35,3.93-.1.53.11.99.25,1.38.43.37.17.67.37.9.58.2.19.32.39.37.59l.09.38h2.17l-.19-.63c-.15-.5-.43-.97-.84-1.38-.39-.39-.88-.73-1.46-1.01-.56-.27-1.21-.48-1.92-.62-1.62-.33-3.62-.28-5.16.16-.88.26-1.65.63-2.29,1.11-.65.49-1.16,1.09-1.53,1.78-.37.7-.55,1.49-.55,2.36s.18,1.65.54,2.36c.36.71.87,1.32,1.53,1.81.65.49,1.42.87,2.31,1.13.88.26,1.86.39,2.92.39.52,0,1.04-.03,1.54-.09.5-.06,1-.15,1.47-.27.48-.13.93-.29,1.36-.5.22-.11.43-.22.63-.36l.35,1.03h1.44v-5.84h-5.95Z"/>
        </g>
        <g>
          <path class="cls-2" d="M77.7,56.55l-28.76-16.94-.72,1.22c-1.58,2.68-.68,6.14,2,7.71l23.48,13.83-25.1,15.14-22.43-13.33c.05-.36.09-.72.09-1.09,0-4.18-3.4-7.58-7.58-7.58s-7.58,3.4-7.58,7.58,3.4,7.58,7.58,7.58c1.19,0,2.32-.28,3.32-.78l23.15,13.77c1.07.63,2.26.95,3.45.95s2.42-.33,3.49-.97l25.67-15.49c2.06-1.24,3.28-3.42,3.26-5.82-.01-2.4-1.26-4.57-3.33-5.79ZM15.6,63.1c0-1.69,1.38-3.07,3.07-3.07s3.07,1.38,3.07,3.07-1.38,3.07-3.07,3.07-3.07-1.38-3.07-3.07Z"/>
          <path class="cls-2" d="M79.38,34.04c-1.19,0-2.32.28-3.32.78l-23.15-13.76c-2.14-1.28-4.81-1.26-6.94.02l-25.67,15.49c-2.06,1.24-3.28,3.42-3.26,5.82.01,2.4,1.26,4.56,3.33,5.78l28.76,16.94.72-1.22c.76-1.3.98-2.81.6-4.27-.38-1.46-1.3-2.68-2.6-3.44l-23.48-13.83,25.1-15.14,22.43,13.33c-.05.36-.09.72-.09,1.09,0,4.18,3.4,7.58,7.58,7.58s7.58-3.4,7.58-7.58-3.4-7.58-7.58-7.58ZM79.38,44.7c-1.69,0-3.07-1.38-3.07-3.07s1.38-3.07,3.07-3.07,3.07,1.38,3.07,3.07-1.38,3.07-3.07,3.07Z"/>
        </g>
      </g>
      <rect class="cls-1" width="250" height="100"/>
    </g>
  </g>
</svg>